<?xml version="1.0" encoding="utf-8"?>
<svg version="1.1" id="amadornes_logo" xmlns="http://www.w3.org/2000/svg" xmlns:xlink="http://www.w3.org/1999/xlink" x="0px"
	 y="0px" viewBox="0 0 1000 1000" style="enable-background:new 0 0 1000 1000;" xml:space="preserve">
<style type="text/css">
	.st0{fill:#D53625;}
</style>
<g>
	<g>
		<path class="st0" d="M603.6,418.5l-84.2-48.6c-11.8-6.8-26.3-6.8-38.1,0l-84.2,48.6c-11.8,6.8-19,19.4-19,33v97.2
			c0,13.6,7.3,26.2,19,33l84.2,48.6c11.8,6.8,26.3,6.8,38.1,0l84.2-48.6c11.8-6.8,19-19.4,19-33v-97.2
			C622.7,437.9,615.4,425.3,603.6,418.5z"/>
	</g>
	<g>
		<path class="st0" d="M384.2,292.2l-172.3-99.5c-5.5-3.2-12.4-3.2-17.9,0l-83.1,48C92.4,251.4,81,271.2,81,292.5v415.2
			c0,21.4,11.4,41.1,29.9,51.8l151,87.2c12,6.9,26.9-1.7,26.9-15.5l0.3-431c0-13.6,7.3-26.2,19-33l76-43.9
			C396.2,316.4,396.2,299.1,384.2,292.2z"/>
	</g>
	<g>
		<path class="st0" d="M889.8,240.7L530.3,33.1c-18.5-10.7-41.3-10.7-59.8,0l-151,87.2c-12,6.9-12,24.1,0,31.1l373.1,215.8
			c11.8,6.8,19,19.4,19,33l0.3,87.5c0,13.8,15,22.4,26.9,15.5l172-99.3c5.5-3.2,9-9.1,9-15.5v-95.8
			C919.7,271.2,908.3,251.4,889.8,240.7z"/>
	</g>
	<g>
		<path class="st0" d="M892.8,517.7L721,616.9c-5.5,3.2-9,9.1-9,15.5v198.6c0,13.8,14.9,22.4,26.9,15.5l150.9-87.1
			c18.5-10.7,29.9-30.4,29.9-51.8V533.2C919.7,519.4,904.8,510.8,892.8,517.7z"/>
	</g>
	<g>
		<path class="st0" d="M595.5,689.3L519.4,733c-11.8,6.8-26.3,6.8-38.1,0l-76-43.9c-12-6.9-26.9,1.7-26.9,15.5v198.9
			c0,6.4,3.4,12.3,9,15.5l83.1,48c18.5,10.7,41.3,10.7,59.8,0l83.1-48c5.5-3.2,9-9.1,9-15.5V704.9
			C622.3,691.1,607.4,682.5,595.5,689.3z"/>
	</g>
</g>
</svg>
